<svg width="100%" viewBox="0 0 680 320" role="img" xmlns="http://www.w3.org/2000/svg">
  <title>Lycka Bureau</title>
  <desc>Lycka Bureau — Trusted Domestic Solutions</desc>
  <style>
    .lk { font-family: 'Playfair Display', 'Times New Roman', Georgia, serif; font-size: 96px; font-weight: 900; fill: #4B1D96; letter-spacing: 4px; }
    .bk { font-family: 'Playfair Display', 'Times New Roman', Georgia, serif; font-size: 58px; font-weight: 700; fill: #C9A227; letter-spacing: 10px; }
    .tg { font-family: Arial, sans-serif; font-size: 15px; font-weight: 600; fill: #6B3AAA; letter-spacing: 6px; }
  </style>
  <polygon points="50,175 155,80 260,175" fill="#4B1D96"/>
  <rect x="68" y="108" width="18" height="38" fill="#4B1D96"/>
  <rect x="58" y="173" width="194" height="100" fill="#4B1D96"/>
  <rect x="128" y="204" width="38" height="69" fill="#6830B8"/>
  <rect x="70" y="194" width="38" height="32" fill="#6830B8"/>
  <ellipse cx="156" cy="228" rx="14" ry="24" fill="#C9A227"/>
  <ellipse cx="156" cy="233" rx="8" ry="16" fill="#4B1D96"/>
  <circle cx="156" cy="196" r="11" fill="#C9A227"/>
  <ellipse cx="156" cy="187" rx="8" ry="6" fill="#3B1A6B"/>
  <line x1="168" y1="212" x2="185" y2="252" stroke="#C9A227" stroke-width="5" stroke-linecap="round"/>
  <ellipse cx="188" cy="256" rx="9" ry="5" fill="#C9A227"/>
  <line x1="144" y1="214" x2="132" y2="232" stroke="#C9A227" stroke-width="5" stroke-linecap="round"/>
  <g transform="translate(238,95)"><path d="M0,-13 L3,-3 L13,0 L3,3 L0,13 L-3,3 L-13,0 L-3,-3 Z" fill="#C9A227"/></g>
  <g transform="translate(268,68)"><path d="M0,-8 L2,-2 L8,0 L2,2 L0,8 L-2,2 L-8,0 L-2,-2 Z" fill="#C9A227"/></g>
  <g transform="translate(250,125)"><path d="M0,-7 L1.7,-1.7 L7,0 L1.7,1.7 L0,7 L-1.7,1.7 L-7,0 L-1.7,-1.7 Z" fill="#C9A227"/></g>
  <path d="M34,282 Q90,260 155,278 Q220,296 282,272 Q300,265 318,268" fill="none" stroke="#C9A227" stroke-width="6" stroke-linecap="round"/>
  <path d="M40,295 Q98,275 162,292 Q225,308 286,284 Q304,277 320,280" fill="none" stroke="#C9A227" stroke-width="3.5" stroke-linecap="round" opacity="0.45"/>
  <text x="328" y="188" class="lk">LYCKA</text>
  <text x="338" y="248" class="bk">BUREAU</text>
  <line x1="328" y1="264" x2="658" y2="264" stroke="#4B1D96" stroke-width="1.2" opacity="0.35"/>
  <line x1="328" y1="290" x2="368" y2="290" stroke="#C9A227" stroke-width="1.8"/>
  <text x="376" y="294" class="tg">TRUSTED DOMESTIC SOLUTIONS</text>
  <line x1="646" y1="290" x2="660" y2="290" stroke="#C9A227" stroke-width="1.8"/>
  <circle cx="408" cy="290" r="3" fill="#C9A227"/>
  <circle cx="456" cy="290" r="3" fill="#C9A227"/>
  <circle cx="590" cy="290" r="3" fill="#C9A227"/>
</svg>
